<svg width="32" height="28" viewBox="0 0 32 28" fill="none" xmlns="http://www.w3.org/2000/svg">
<path fill-rule="evenodd" clip-rule="evenodd" d="M0 14C0 13.4696 0.210714 12.9609 0.585787 12.5858C0.96086 12.2107 1.46957 12 2 12H25.172L16.584 3.416C16.2085 3.04045 15.9975 2.5311 15.9975 1.99999C15.9975 1.46889 16.2085 0.959541 16.584 0.583994C16.9595 0.208447 17.4689 -0.00253296 18 -0.00253296C18.5311 -0.00253296 19.0405 0.208447 19.416 0.583994L31.416 12.584C31.6023 12.7698 31.75 12.9905 31.8508 13.2335C31.9517 13.4764 32.0036 13.7369 32.0036 14C32.0036 14.2631 31.9517 14.5235 31.8508 14.7665C31.75 15.0095 31.6023 15.2302 31.416 15.416L19.416 27.416C19.0405 27.7915 18.5311 28.0025 18 28.0025C17.4689 28.0025 16.9595 27.7915 16.584 27.416C16.2085 27.0405 15.9975 26.5311 15.9975 26C15.9975 25.4689 16.2085 24.9595 16.584 24.584L25.172 16H2C1.46957 16 0.96086 15.7893 0.585787 15.4142C0.210714 15.0391 0 14.5304 0 14Z" fill="black"/>
</svg>
